<?xml version="1.0" encoding="UTF-8"?>
<!DOCTYPE svg PUBLIC "-//W3C//DTD SVG 1.1//EN" "http://www.w3.org/Graphics/SVG/1.1/DTD/svg11.dtd">
<svg version="1.1" xmlns="http://www.w3.org/2000/svg" xmlns:xlink="http://www.w3.org/1999/xlink" x="0" y="0" width="500" height="500" viewBox="0, 0, 500, 500">
  <g id="Background">
    <rect x="0" y="0" width="500" height="500" fill="#000000" fill-opacity="0"/>
  </g>
  <g id="Layer_1"/>
  <g id="circle">
    <g>
      <path d="M250.5,500.5 C112.429,500.5 0.5,388.571 0.5,250.5 C0.5,112.429 112.429,0.5 250.5,0.5 C388.571,0.5 500.5,112.429 500.5,250.5 C500.5,388.571 388.571,500.5 250.5,500.5 z" fill="#3185C0"/>
      <path d="M250.5,500.5 C112.429,500.5 0.5,388.571 0.5,250.5 C0.5,112.429 112.429,0.5 250.5,0.5 C388.571,0.5 500.5,112.429 500.5,250.5 C500.5,388.571 388.571,500.5 250.5,500.5 z" fill-opacity="0" stroke="#3185C0" stroke-width="1"/>
    </g>
  </g>
  <g id="awesome">
    <path d="M371.168,149.219 C297.645,160.167 283.065,141.041 250,111 C216.935,141.041 202.355,160.167 128.832,149.219 C89.648,349.95 250,406 250,406 C250,406 410.352,349.95 371.168,149.219 z M289.407,312.731 L250,291.425 L210.609,312.731 L218.13,267.612 L186.261,235.654 L230.305,229.082 L250,188.028 L269.695,229.082 L313.739,235.654 L281.87,267.596 L289.407,312.731 z" fill="#FFFFFF"/>
    <path d="M169,171 L326,171 L326,328 L169,328 L169,171 z" fill="#FFFFFF"/>
    <path d="M278.5,240 L278.5,221 C278.5,205.263 265.737,192.5 250,192.5 C234.263,192.5 221.5,205.263 221.5,221 L221.5,240 L207.25,240 L207.25,306.5 L292.75,306.5 L292.75,240 L278.5,240 z M231,240 L231,221 C231,210.521 239.521,202 250,202 C260.478,202 269,210.521 269,221 L269,240 L231,240 z" fill="#3185C0"/>
  </g>
</svg>
